<svg width="53" height="50" viewBox="0 0 53 50" fill="none" xmlns="http://www.w3.org/2000/svg">
<path d="M33.9023 0H18.2549V2.60789H33.9023V0Z" fill="#F938D8"/>
<path d="M18.2549 2.60791H13.0391V5.21581H18.2549V2.60791Z" fill="#F938D8"/>
<path d="M33.9023 2.60791H18.2549V5.21581H33.9023V2.60791Z" fill="#410D66"/>
<path d="M39.1181 2.60791H33.9023V5.21581H39.1181V2.60791Z" fill="#F938D8"/>
<path d="M13.0395 5.21582H10.4316V7.82372H13.0395V5.21582Z" fill="#F938D8"/>
<path d="M39.118 5.21582H13.0391V7.82372H39.118V5.21582Z" fill="#410D66"/>
<path d="M41.7261 5.21582H39.1182V7.82372H41.7261V5.21582Z" fill="#F938D8"/>
<path d="M10.4321 7.82373H7.82422V10.4316H10.4321V7.82373Z" fill="#F938D8"/>
<path d="M28.6869 7.82373H10.4316V10.4316H28.6869V7.82373Z" fill="#410D66"/>
<path d="M31.2944 7.82373H28.6865V10.4316H31.2944V7.82373Z" fill="#F938D8"/>
<path d="M41.7265 7.82373H31.2949V10.4316H41.7265V7.82373Z" fill="#410D66"/>
<path d="M44.3345 7.82373H41.7266V10.4316H44.3345V7.82373Z" fill="#F938D8"/>
<path d="M7.82372 10.4316H5.21582V13.0395H7.82372V10.4316Z" fill="#F938D8"/>
<path d="M15.6479 10.4316H7.82422V13.0395H15.6479V10.4316Z" fill="#410D66"/>
<path d="M18.2554 10.4316H15.6475V13.0395H18.2554V10.4316Z" fill="#F938D8"/>
<path d="M44.3338 10.4316H18.2549V13.0395H44.3338V10.4316Z" fill="#410D66"/>
<path d="M46.9429 10.4316H44.335V13.0395H46.9429V10.4316Z" fill="#F938D8"/>
<path d="M5.21532 13.0396H2.60742V15.6474H5.21532V13.0396Z" fill="#F938D8"/>
<path d="M13.0395 13.0396H5.21582V15.6474H13.0395V13.0396Z" fill="#410D66"/>
<path d="M15.647 13.0396H13.0391V15.6474H15.647V13.0396Z" fill="#F938D8"/>
<path d="M18.2554 13.0396H15.6475V15.6474H18.2554V13.0396Z" fill="#410D66"/>
<path d="M20.8628 13.0396H18.2549V15.6474H20.8628V13.0396Z" fill="#F938D8"/>
<path d="M33.9028 13.0396H20.8633V15.6474H33.9028V13.0396Z" fill="#410D66"/>
<path d="M36.5102 13.0396H33.9023V15.6474H36.5102V13.0396Z" fill="#F938D8"/>
<path d="M46.9423 13.0396H36.5107V15.6474H46.9423V13.0396Z" fill="#410D66"/>
<path d="M49.5503 13.0396H46.9424V15.6474H49.5503V13.0396Z" fill="#F938D8"/>
<path d="M5.21532 15.6475H2.60742V18.2554H5.21532V15.6475Z" fill="#F938D8"/>
<path d="M15.6474 15.6475H5.21582V18.2554H15.6474V15.6475Z" fill="#410D66"/>
<path d="M18.2554 15.6475H15.6475V18.2554H18.2554V15.6475Z" fill="#F938D8"/>
<path d="M31.2944 15.6475H18.2549V18.2554H31.2944V15.6475Z" fill="#410D66"/>
<path d="M39.1186 15.6475H31.2949V18.2554H39.1186V15.6475Z" fill="#F938D8"/>
<path d="M46.9418 15.6475H39.1182V18.2554H46.9418V15.6475Z" fill="#410D66"/>
<path d="M49.5503 15.6475H46.9424V18.2554H49.5503V15.6475Z" fill="#F938D8"/>
<path d="M2.60789 18.2554H0V20.8633H2.60789V18.2554Z" fill="#F938D8"/>
<path d="M33.9022 18.2554H2.60742V20.8633H33.9022V18.2554Z" fill="#410D66"/>
<path d="M36.5102 18.2554H33.9023V20.8633H36.5102V18.2554Z" fill="#F938D8"/>
<path d="M49.5502 18.2554H36.5107V20.8633H49.5502V18.2554Z" fill="#410D66"/>
<path d="M52.1577 18.2554H49.5498V20.8633H52.1577V18.2554Z" fill="#F938D8"/>
<path d="M2.60789 20.8633H0V23.4712H2.60789V20.8633Z" fill="#F938D8"/>
<path d="M20.8627 20.8633H2.60742V23.4712H20.8627V20.8633Z" fill="#410D66"/>
<path d="M23.4712 20.8633H20.8633V23.4712H23.4712V20.8633Z" fill="#F938D8"/>
<path d="M49.5497 20.8633H23.4707V23.4712H49.5497V20.8633Z" fill="#410D66"/>
<path d="M52.1577 20.8633H49.5498V23.4712H52.1577V20.8633Z" fill="#F938D8"/>
<path d="M2.60789 23.4712H0V26.0791H2.60789V23.4712Z" fill="#F938D8"/>
<path d="M49.5495 23.4712H2.60742V26.0791H49.5495V23.4712Z" fill="#410D66"/>
<path d="M52.1577 23.4712H49.5498V26.0791H52.1577V23.4712Z" fill="#F938D8"/>
<path d="M2.60789 26.0786H0V28.6865H2.60789V26.0786Z" fill="#F938D8"/>
<path d="M49.5495 26.0786H2.60742V28.6865H49.5495V26.0786Z" fill="#410D66"/>
<path d="M52.1577 26.0786H49.5498V28.6865H52.1577V26.0786Z" fill="#F938D8"/>
<path d="M2.60789 28.687H0V31.2949H2.60789V28.687Z" fill="#F938D8"/>
<path d="M49.5495 28.687H2.60742V31.2949H49.5495V28.687Z" fill="#410D66"/>
<path d="M52.1577 28.687H49.5498V31.2949H52.1577V28.687Z" fill="#F938D8"/>
<path d="M2.60789 31.2944H0V33.9023H2.60789V31.2944Z" fill="#F938D8"/>
<path d="M49.5495 31.2944H2.60742V33.9023H49.5495V31.2944Z" fill="#410D66"/>
<path d="M52.1577 31.2944H49.5498V33.9023H52.1577V31.2944Z" fill="#F938D8"/>
<path d="M5.21532 33.9023H2.60742V36.5102H5.21532V33.9023Z" fill="#F938D8"/>
<path d="M46.9421 33.9023H5.21582V36.5102H46.9421V33.9023Z" fill="#410D66"/>
<path d="M49.5503 33.9023H46.9424V36.5102H49.5503V33.9023Z" fill="#F938D8"/>
<path d="M5.21532 36.5103H2.60742V39.1181H5.21532V36.5103Z" fill="#F938D8"/>
<path d="M46.9421 36.5103H5.21582V39.1181H46.9421V36.5103Z" fill="#410D66"/>
<path d="M49.5503 36.5103H46.9424V39.1181H49.5503V36.5103Z" fill="#F938D8"/>
<path d="M7.82372 39.1182H5.21582V41.7261H7.82372V39.1182Z" fill="#F938D8"/>
<path d="M44.3347 39.1182H7.82422V41.7261H44.3347V39.1182Z" fill="#410D66"/>
<path d="M46.9429 39.1182H44.335V41.7261H46.9429V39.1182Z" fill="#F938D8"/>
<path d="M46.9421 41.7266H5.21582V44.3345H46.9421V41.7266Z" fill="#552D1D"/>
<path d="M18.2553 44.334H5.21582V46.9419H18.2553V44.334Z" fill="#552D1D"/>
<path d="M36.5101 44.334H18.2549V46.9419H36.5101V44.334Z" fill="black"/>
<path d="M46.9423 44.334H36.5107V46.9419H46.9423V44.334Z" fill="#552D1D"/>
<path d="M46.9421 46.9424H5.21582V49.5503H46.9421V46.9424Z" fill="#552D1D"/>
</svg>
