<svg width="38" height="28" viewBox="0 0 38 28" fill="none" xmlns="http://www.w3.org/2000/svg">
<path d="M18.0896 0H4.93359V1.6445H18.0896V0Z" fill="#395ED1"/>
<path d="M13.1556 1.64453H3.28857V3.28903H13.1556V1.64453Z" fill="#395ED1"/>
<path d="M14.8003 1.64453H13.1558V3.28903H14.8003V1.64453Z" fill="#FFC925"/>
<path d="M21.3788 1.64453H14.8008V3.28903H21.3788V1.64453Z" fill="#395ED1"/>
<path d="M4.93308 3.28894H3.28857V4.93344H4.93308V3.28894Z" fill="#395ED1"/>
<path d="M11.5117 3.28894H8.22266V4.93344H11.5117V3.28894Z" fill="#395ED1"/>
<path d="M16.4447 3.28894H11.5112V4.93344H16.4447V3.28894Z" fill="#FFC925"/>
<path d="M23.0233 3.28894H16.4453V4.93344H23.0233V3.28894Z" fill="#395ED1"/>
<path d="M4.93308 4.93347H3.28857V6.57797H4.93308V4.93347Z" fill="#FFC925"/>
<path d="M13.1557 4.93347H9.8667V6.57797H13.1557V4.93347Z" fill="#395ED1"/>
<path d="M14.8003 4.93347H13.1558V6.57797H14.8003V4.93347Z" fill="#FFC925"/>
<path d="M24.6678 4.93347H14.8008V6.57797H24.6678V4.93347Z" fill="#395ED1"/>
<path d="M8.22251 6.578H0V8.2225H8.22251V6.578Z" fill="#FFC925"/>
<path d="M18.0892 6.578H11.5112V8.2225H18.0892V6.578Z" fill="#395ED1"/>
<path d="M19.7343 6.578H18.0898V8.2225H19.7343V6.578Z" fill="#FFC925"/>
<path d="M26.3119 6.578H19.7339V8.2225H26.3119V6.578Z" fill="#395ED1"/>
<path d="M6.57803 8.22241H1.64453V9.86691H6.57803V8.22241Z" fill="#FFC925"/>
<path d="M16.4448 8.22241H13.1558V9.86691H16.4448V8.22241Z" fill="#395ED1"/>
<path d="M18.0898 8.22241H16.4453V9.86691H18.0898V8.22241Z" fill="#FFC925"/>
<path d="M19.7343 8.22241H18.0898V9.86691H19.7343V8.22241Z" fill="#395ED1"/>
<path d="M21.3784 8.22241H19.7339V9.86691H21.3784V8.22241Z" fill="#FFC925"/>
<path d="M23.0229 8.22241H21.3784V9.86691H23.0229V8.22241Z" fill="#395ED1"/>
<path d="M24.6675 8.22241H23.0229V9.86691H24.6675V8.22241Z" fill="#FFC925"/>
<path d="M27.957 8.22241H24.668V9.86691H27.957V8.22241Z" fill="#395ED1"/>
<path d="M3.28903 9.86694H1.64453V11.5114H3.28903V9.86694Z" fill="#FFC925"/>
<path d="M6.57809 9.86694H4.93359V11.5114H6.57809V9.86694Z" fill="#FFC925"/>
<path d="M18.0898 9.86694H14.8008V11.5114H18.0898V9.86694Z" fill="#395ED1"/>
<path d="M19.7343 9.86694H18.0898V11.5114H19.7343V9.86694Z" fill="#FFC925"/>
<path d="M29.6009 9.86694H19.7339V11.5114H29.6009V9.86694Z" fill="#395ED1"/>
<path d="M31.2458 11.5116H14.8008V13.1561H31.2458V11.5116Z" fill="#395ED1"/>
<path d="M26.3118 13.1561H13.1558V14.8006H26.3118V13.1561Z" fill="#395ED1"/>
<path d="M27.9565 13.1561H26.312V14.8006H27.9565V13.1561Z" fill="#FFC925"/>
<path d="M31.2455 13.1561H27.9565V14.8006H31.2455V13.1561Z" fill="#395ED1"/>
<path d="M14.8003 14.8004H13.1558V16.4449H14.8003V14.8004Z" fill="#395ED1"/>
<path d="M16.4453 14.8004H14.8008V16.4449H16.4453V14.8004Z" fill="#FFC925"/>
<path d="M24.6678 14.8004H16.4453V16.4449H24.6678V14.8004Z" fill="#395ED1"/>
<path d="M29.6015 14.8004H24.668V16.4449H29.6015V14.8004Z" fill="#FFC925"/>
<path d="M32.8901 14.8004H29.6011V16.4449H32.8901V14.8004Z" fill="#395ED1"/>
<path d="M26.3118 16.4449H13.1558V18.0894H26.3118V16.4449Z" fill="#395ED1"/>
<path d="M27.9565 16.4449H26.312V18.0894H27.9565V16.4449Z" fill="#FFC925"/>
<path d="M32.89 16.4449H27.9565V18.0894H32.89V16.4449Z" fill="#395ED1"/>
<path d="M19.7338 18.0896H13.1558V19.7341H19.7338V18.0896Z" fill="#395ED1"/>
<path d="M21.3784 18.0896H19.7339V19.7341H21.3784V18.0896Z" fill="#FFC925"/>
<path d="M32.8899 18.0896H21.3784V19.7341H32.8899V18.0896Z" fill="#395ED1"/>
<path d="M32.8897 19.734H11.5112V21.3785H32.8897V19.734Z" fill="#395ED1"/>
<path d="M32.8897 21.3785H9.8667V23.023H32.8897V21.3785Z" fill="#395ED1"/>
<path d="M19.7342 23.0229H8.22266V24.6675H19.7342V23.0229Z" fill="#395ED1"/>
<path d="M27.9564 23.0229H19.7339V24.6675H27.9564V23.0229Z" fill="#1F1D29"/>
<path d="M31.2455 23.0229H27.9565V24.6675H31.2455V23.0229Z" fill="#395ED1"/>
<path d="M34.5346 24.6675H4.93359V26.312H34.5346V24.6675Z" fill="#00499C"/>
<path d="M37.8236 26.312H1.64453V27.9565H37.8236V26.312Z" fill="#00499C"/>
</svg>
