<svg width="362" height="24" viewBox="0 0 362 24" fill="none" xmlns="http://www.w3.org/2000/svg">
<path d="M14.0547 9.50391V15.75C13.8438 16.0625 13.5078 16.4141 13.0469 16.8047C12.5859 17.1875 11.9492 17.5234 11.1367 17.8125C10.332 18.0938 9.29297 18.2344 8.01953 18.2344C6.98047 18.2344 6.02344 18.0547 5.14844 17.6953C4.28125 17.3281 3.52734 16.7969 2.88672 16.1016C2.25391 15.3984 1.76172 14.5469 1.41016 13.5469C1.06641 12.5391 0.894531 11.3984 0.894531 10.125V8.80078C0.894531 7.52734 1.04297 6.39062 1.33984 5.39062C1.64453 4.39063 2.08984 3.54297 2.67578 2.84766C3.26172 2.14453 3.98047 1.61328 4.83203 1.25391C5.68359 0.886719 6.66016 0.703125 7.76172 0.703125C9.06641 0.703125 10.1562 0.929687 11.0312 1.38281C11.9141 1.82812 12.6016 2.44531 13.0938 3.23438C13.5938 4.02344 13.9141 4.92188 14.0547 5.92969H11.793C11.6914 5.3125 11.4883 4.75 11.1836 4.24219C10.8867 3.73438 10.4609 3.32812 9.90625 3.02344C9.35156 2.71094 8.63672 2.55469 7.76172 2.55469C6.97266 2.55469 6.28906 2.69922 5.71094 2.98828C5.13281 3.27734 4.65625 3.69141 4.28125 4.23047C3.90625 4.76953 3.625 5.42188 3.4375 6.1875C3.25781 6.95312 3.16797 7.81641 3.16797 8.77734V10.125C3.16797 11.1094 3.28125 11.9883 3.50781 12.7617C3.74219 13.5352 4.07422 14.1953 4.50391 14.7422C4.93359 15.2812 5.44531 15.6914 6.03906 15.9727C6.64062 16.2539 7.30469 16.3945 8.03125 16.3945C8.83594 16.3945 9.48828 16.3281 9.98828 16.1953C10.4883 16.0547 10.8789 15.8906 11.1602 15.7031C11.4414 15.5078 11.6562 15.3242 11.8047 15.1523V11.332H7.85547V9.50391H14.0547ZM22.7383 18.2344C21.8555 18.2344 21.0547 18.0859 20.3359 17.7891C19.625 17.4844 19.0117 17.0586 18.4961 16.5117C17.9883 15.9648 17.5977 15.3164 17.3242 14.5664C17.0508 13.8164 16.9141 12.9961 16.9141 12.1055V11.6133C16.9141 10.582 17.0664 9.66406 17.3711 8.85938C17.6758 8.04688 18.0898 7.35938 18.6133 6.79688C19.1367 6.23438 19.7305 5.80859 20.3945 5.51953C21.0586 5.23047 21.7461 5.08594 22.457 5.08594C23.3633 5.08594 24.1445 5.24219 24.8008 5.55469C25.4648 5.86719 26.0078 6.30469 26.4297 6.86719C26.8516 7.42188 27.1641 8.07812 27.3672 8.83594C27.5703 9.58594 27.6719 10.4062 27.6719 11.2969V12.2695H18.2031V10.5H25.5039V10.3359C25.4727 9.77344 25.3555 9.22656 25.1523 8.69531C24.957 8.16406 24.6445 7.72656 24.2148 7.38281C23.7852 7.03906 23.1992 6.86719 22.457 6.86719C21.9648 6.86719 21.5117 6.97266 21.0977 7.18359C20.6836 7.38672 20.3281 7.69141 20.0312 8.09766C19.7344 8.50391 19.5039 9 19.3398 9.58594C19.1758 10.1719 19.0938 10.8477 19.0938 11.6133V12.1055C19.0938 12.707 19.1758 13.2734 19.3398 13.8047C19.5117 14.3281 19.7578 14.7891 20.0781 15.1875C20.4062 15.5859 20.8008 15.8984 21.2617 16.125C21.7305 16.3516 22.2617 16.4648 22.8555 16.4648C23.6211 16.4648 24.2695 16.3086 24.8008 15.9961C25.332 15.6836 25.7969 15.2656 26.1953 14.7422L27.5078 15.7852C27.2344 16.1992 26.8867 16.5938 26.4648 16.9688C26.043 17.3438 25.5234 17.6484 24.9062 17.8828C24.2969 18.1172 23.5742 18.2344 22.7383 18.2344ZM32.3711 8.02734V18H30.2031V5.32031H32.2539L32.3711 8.02734ZM31.8555 11.1797L30.9531 11.1445C30.9609 10.2773 31.0898 9.47656 31.3398 8.74219C31.5898 8 31.9414 7.35547 32.3945 6.80859C32.8477 6.26172 33.3867 5.83984 34.0117 5.54297C34.6445 5.23828 35.3438 5.08594 36.1094 5.08594C36.7344 5.08594 37.2969 5.17187 37.7969 5.34375C38.2969 5.50781 38.7227 5.77344 39.0742 6.14062C39.4336 6.50781 39.707 6.98438 39.8945 7.57031C40.082 8.14844 40.1758 8.85547 40.1758 9.69141V18H37.9961V9.66797C37.9961 9.00391 37.8984 8.47266 37.7031 8.07422C37.5078 7.66797 37.2227 7.375 36.8477 7.19531C36.4727 7.00781 36.0117 6.91406 35.4648 6.91406C34.9258 6.91406 34.4336 7.02734 33.9883 7.25391C33.5508 7.48047 33.1719 7.79297 32.8516 8.19141C32.5391 8.58984 32.293 9.04688 32.1133 9.5625C31.9414 10.0703 31.8555 10.6094 31.8555 11.1797ZM48.7305 18.2344C47.8477 18.2344 47.0469 18.0859 46.3281 17.7891C45.6172 17.4844 45.0039 17.0586 44.4883 16.5117C43.9805 15.9648 43.5898 15.3164 43.3164 14.5664C43.043 13.8164 42.9062 12.9961 42.9062 12.1055V11.6133C42.9062 10.582 43.0586 9.66406 43.3633 8.85938C43.668 8.04688 44.082 7.35938 44.6055 6.79688C45.1289 6.23438 45.7227 5.80859 46.3867 5.51953C47.0508 5.23047 47.7383 5.08594 48.4492 5.08594C49.3555 5.08594 50.1367 5.24219 50.793 5.55469C51.457 5.86719 52 6.30469 52.4219 6.86719C52.8438 7.42188 53.1562 8.07812 53.3594 8.83594C53.5625 9.58594 53.6641 10.4062 53.6641 11.2969V12.2695H44.1953V10.5H51.4961V10.3359C51.4648 9.77344 51.3477 9.22656 51.1445 8.69531C50.9492 8.16406 50.6367 7.72656 50.207 7.38281C49.7773 7.03906 49.1914 6.86719 48.4492 6.86719C47.957 6.86719 47.5039 6.97266 47.0898 7.18359C46.6758 7.38672 46.3203 7.69141 46.0234 8.09766C45.7266 8.50391 45.4961 9 45.332 9.58594C45.168 10.1719 45.0859 10.8477 45.0859 11.6133V12.1055C45.0859 12.707 45.168 13.2734 45.332 13.8047C45.5039 14.3281 45.75 14.7891 46.0703 15.1875C46.3984 15.5859 46.793 15.8984 47.2539 16.125C47.7227 16.3516 48.2539 16.4648 48.8477 16.4648C49.6133 16.4648 50.2617 16.3086 50.793 15.9961C51.3242 15.6836 51.7891 15.2656 52.1875 14.7422L53.5 15.7852C53.2266 16.1992 52.8789 16.5938 52.457 16.9688C52.0352 17.3438 51.5156 17.6484 50.8984 17.8828C50.2891 18.1172 49.5664 18.2344 48.7305 18.2344ZM58.3633 7.3125V18H56.1953V5.32031H58.3047L58.3633 7.3125ZM62.3242 5.25L62.3125 7.26562C62.1328 7.22656 61.9609 7.20312 61.7969 7.19531C61.6406 7.17969 61.4609 7.17188 61.2578 7.17188C60.7578 7.17188 60.3164 7.25 59.9336 7.40625C59.5508 7.5625 59.2266 7.78125 58.9609 8.0625C58.6953 8.34375 58.4844 8.67969 58.3281 9.07031C58.1797 9.45312 58.082 9.875 58.0352 10.3359L57.4258 10.6875C57.4258 9.92188 57.5 9.20312 57.6484 8.53125C57.8047 7.85938 58.043 7.26562 58.3633 6.75C58.6836 6.22656 59.0898 5.82031 59.582 5.53125C60.082 5.23438 60.6758 5.08594 61.3633 5.08594C61.5195 5.08594 61.6992 5.10547 61.9023 5.14453C62.1055 5.17578 62.2461 5.21094 62.3242 5.25ZM71.3359 15.832V9.30469C71.3359 8.80469 71.2344 8.37109 71.0312 8.00391C70.8359 7.62891 70.5391 7.33984 70.1406 7.13672C69.7422 6.93359 69.25 6.83203 68.6641 6.83203C68.1172 6.83203 67.6367 6.92578 67.2227 7.11328C66.8164 7.30078 66.4961 7.54688 66.2617 7.85156C66.0352 8.15625 65.9219 8.48438 65.9219 8.83594H63.7539C63.7539 8.38281 63.8711 7.93359 64.1055 7.48828C64.3398 7.04297 64.6758 6.64062 65.1133 6.28125C65.5586 5.91406 66.0898 5.625 66.707 5.41406C67.332 5.19531 68.0273 5.08594 68.793 5.08594C69.7148 5.08594 70.5273 5.24219 71.2305 5.55469C71.9414 5.86719 72.4961 6.33984 72.8945 6.97266C73.3008 7.59766 73.5039 8.38281 73.5039 9.32812V15.2344C73.5039 15.6562 73.5391 16.1055 73.6094 16.582C73.6875 17.0586 73.8008 17.4688 73.9492 17.8125V18H71.6875C71.5781 17.75 71.4922 17.418 71.4297 17.0039C71.3672 16.582 71.3359 16.1914 71.3359 15.832ZM71.7109 10.3125L71.7344 11.8359H69.543C68.9258 11.8359 68.375 11.8867 67.8906 11.9883C67.4062 12.082 67 12.2266 66.6719 12.4219C66.3438 12.6172 66.0938 12.8633 65.9219 13.1602C65.75 13.4492 65.6641 13.7891 65.6641 14.1797C65.6641 14.5781 65.7539 14.9414 65.9336 15.2695C66.1133 15.5977 66.3828 15.8594 66.7422 16.0547C67.1094 16.2422 67.5586 16.3359 68.0898 16.3359C68.7539 16.3359 69.3398 16.1953 69.8477 15.9141C70.3555 15.6328 70.7578 15.2891 71.0547 14.8828C71.3594 14.4766 71.5234 14.082 71.5469 13.6992L72.4727 14.7422C72.418 15.0703 72.2695 15.4336 72.0273 15.832C71.7852 16.2305 71.4609 16.6133 71.0547 16.9805C70.6562 17.3398 70.1797 17.6406 69.625 17.8828C69.0781 18.1172 68.4609 18.2344 67.7734 18.2344C66.9141 18.2344 66.1602 18.0664 65.5117 17.7305C64.8711 17.3945 64.3711 16.9453 64.0117 16.3828C63.6602 15.8125 63.4844 15.1758 63.4844 14.4727C63.4844 13.793 63.6172 13.1953 63.8828 12.6797C64.1484 12.1562 64.5312 11.7227 65.0312 11.3789C65.5312 11.0273 66.1328 10.7617 66.8359 10.582C67.5391 10.4023 68.3242 10.3125 69.1914 10.3125H71.7109ZM82.2227 5.32031V6.98438H75.3672V5.32031H82.2227ZM77.6875 2.23828H79.8555V14.8594C79.8555 15.2891 79.9219 15.6133 80.0547 15.832C80.1875 16.0508 80.3594 16.1953 80.5703 16.2656C80.7812 16.3359 81.0078 16.3711 81.25 16.3711C81.4297 16.3711 81.6172 16.3555 81.8125 16.3242C82.0156 16.2852 82.168 16.2539 82.2695 16.2305L82.2812 18C82.1094 18.0547 81.8828 18.1055 81.6016 18.1523C81.3281 18.207 80.9961 18.2344 80.6055 18.2344C80.0742 18.2344 79.5859 18.1289 79.1406 17.918C78.6953 17.707 78.3398 17.3555 78.0742 16.8633C77.8164 16.3633 77.6875 15.6914 77.6875 14.8477V2.23828ZM87.1211 5.32031V18H84.9414V5.32031H87.1211ZM84.7773 1.95703C84.7773 1.60547 84.8828 1.30859 85.0938 1.06641C85.3125 0.824219 85.6328 0.703125 86.0547 0.703125C86.4688 0.703125 86.7852 0.824219 87.0039 1.06641C87.2305 1.30859 87.3438 1.60547 87.3438 1.95703C87.3438 2.29297 87.2305 2.58203 87.0039 2.82422C86.7852 3.05859 86.4688 3.17578 86.0547 3.17578C85.6328 3.17578 85.3125 3.05859 85.0938 2.82422C84.8828 2.58203 84.7773 2.29297 84.7773 1.95703ZM94.457 16.043L97.9258 5.32031H100.141L95.582 18H94.1289L94.457 16.043ZM91.5625 5.32031L95.1367 16.1016L95.3828 18H93.9297L89.3359 5.32031H91.5625ZM107.324 18.2344C106.441 18.2344 105.641 18.0859 104.922 17.7891C104.211 17.4844 103.598 17.0586 103.082 16.5117C102.574 15.9648 102.184 15.3164 101.91 14.5664C101.637 13.8164 101.5 12.9961 101.5 12.1055V11.6133C101.5 10.582 101.652 9.66406 101.957 8.85938C102.262 8.04688 102.676 7.35938 103.199 6.79688C103.723 6.23438 104.316 5.80859 104.98 5.51953C105.645 5.23047 106.332 5.08594 107.043 5.08594C107.949 5.08594 108.73 5.24219 109.387 5.55469C110.051 5.86719 110.594 6.30469 111.016 6.86719C111.438 7.42188 111.75 8.07812 111.953 8.83594C112.156 9.58594 112.258 10.4062 112.258 11.2969V12.2695H102.789V10.5H110.09V10.3359C110.059 9.77344 109.941 9.22656 109.738 8.69531C109.543 8.16406 109.23 7.72656 108.801 7.38281C108.371 7.03906 107.785 6.86719 107.043 6.86719C106.551 6.86719 106.098 6.97266 105.684 7.18359C105.27 7.38672 104.914 7.69141 104.617 8.09766C104.32 8.50391 104.09 9 103.926 9.58594C103.762 10.1719 103.68 10.8477 103.68 11.6133V12.1055C103.68 12.707 103.762 13.2734 103.926 13.8047C104.098 14.3281 104.344 14.7891 104.664 15.1875C104.992 15.5859 105.387 15.8984 105.848 16.125C106.316 16.3516 106.848 16.4648 107.441 16.4648C108.207 16.4648 108.855 16.3086 109.387 15.9961C109.918 15.6836 110.383 15.2656 110.781 14.7422L112.094 15.7852C111.82 16.1992 111.473 16.5938 111.051 16.9688C110.629 17.3438 110.109 17.6484 109.492 17.8828C108.883 18.1172 108.16 18.2344 107.324 18.2344ZM134.195 0.9375V18H131.922L123.332 4.83984V18H121.07V0.9375H123.332L131.957 14.1328V0.9375H134.195ZM140.465 0.9375V18H138.203V0.9375H140.465ZM147.613 8.61328V10.4648H139.973V8.61328H147.613ZM148.773 0.9375V2.78906H139.973V0.9375H148.773ZM158.008 0.9375V18H155.781V0.9375H158.008ZM163.492 0.9375V2.78906H150.309V0.9375H163.492ZM171.719 14.6367C171.719 14.3242 171.648 14.0352 171.508 13.7695C171.375 13.4961 171.098 13.25 170.676 13.0312C170.262 12.8047 169.637 12.6094 168.801 12.4453C168.098 12.2969 167.461 12.1211 166.891 11.918C166.328 11.7148 165.848 11.4688 165.449 11.1797C165.059 10.8906 164.758 10.5508 164.547 10.1602C164.336 9.76953 164.23 9.3125 164.23 8.78906C164.23 8.28906 164.34 7.81641 164.559 7.37109C164.785 6.92578 165.102 6.53125 165.508 6.1875C165.922 5.84375 166.418 5.57422 166.996 5.37891C167.574 5.18359 168.219 5.08594 168.93 5.08594C169.945 5.08594 170.812 5.26562 171.531 5.625C172.25 5.98438 172.801 6.46484 173.184 7.06641C173.566 7.66016 173.758 8.32031 173.758 9.04688H171.59C171.59 8.69531 171.484 8.35547 171.273 8.02734C171.07 7.69141 170.77 7.41406 170.371 7.19531C169.98 6.97656 169.5 6.86719 168.93 6.86719C168.328 6.86719 167.84 6.96094 167.465 7.14844C167.098 7.32812 166.828 7.55859 166.656 7.83984C166.492 8.12109 166.41 8.41797 166.41 8.73047C166.41 8.96484 166.449 9.17578 166.527 9.36328C166.613 9.54297 166.762 9.71094 166.973 9.86719C167.184 10.0156 167.48 10.1562 167.863 10.2891C168.246 10.4219 168.734 10.5547 169.328 10.6875C170.367 10.9219 171.223 11.2031 171.895 11.5312C172.566 11.8594 173.066 12.2617 173.395 12.7383C173.723 13.2148 173.887 13.793 173.887 14.4727C173.887 15.0273 173.77 15.5352 173.535 15.9961C173.309 16.457 172.977 16.8555 172.539 17.1914C172.109 17.5195 171.594 17.7773 170.992 17.9648C170.398 18.1445 169.73 18.2344 168.988 18.2344C167.871 18.2344 166.926 18.0352 166.152 17.6367C165.379 17.2383 164.793 16.7227 164.395 16.0898C163.996 15.457 163.797 14.7891 163.797 14.0859H165.977C166.008 14.6797 166.18 15.1523 166.492 15.5039C166.805 15.8477 167.188 16.0938 167.641 16.2422C168.094 16.3828 168.543 16.4531 168.988 16.4531C169.582 16.4531 170.078 16.375 170.477 16.2188C170.883 16.0625 171.191 15.8477 171.402 15.5742C171.613 15.3008 171.719 14.9883 171.719 14.6367ZM184.844 7.83984V18H182.664V5.32031H184.727L184.844 7.83984ZM184.398 11.1797L183.391 11.1445C183.398 10.2773 183.512 9.47656 183.73 8.74219C183.949 8 184.273 7.35547 184.703 6.80859C185.133 6.26172 185.668 5.83984 186.309 5.54297C186.949 5.23828 187.691 5.08594 188.535 5.08594C189.129 5.08594 189.676 5.17187 190.176 5.34375C190.676 5.50781 191.109 5.76953 191.477 6.12891C191.844 6.48828 192.129 6.94922 192.332 7.51172C192.535 8.07422 192.637 8.75391 192.637 9.55078V18H190.469V9.65625C190.469 8.99219 190.355 8.46094 190.129 8.0625C189.91 7.66406 189.598 7.375 189.191 7.19531C188.785 7.00781 188.309 6.91406 187.762 6.91406C187.121 6.91406 186.586 7.02734 186.156 7.25391C185.727 7.48047 185.383 7.79297 185.125 8.19141C184.867 8.58984 184.68 9.04688 184.562 9.5625C184.453 10.0703 184.398 10.6094 184.398 11.1797ZM192.613 9.98438L191.16 10.4297C191.168 9.73438 191.281 9.06641 191.5 8.42578C191.727 7.78516 192.051 7.21484 192.473 6.71484C192.902 6.21484 193.43 5.82031 194.055 5.53125C194.68 5.23438 195.395 5.08594 196.199 5.08594C196.879 5.08594 197.48 5.17578 198.004 5.35547C198.535 5.53516 198.98 5.8125 199.34 6.1875C199.707 6.55469 199.984 7.02734 200.172 7.60547C200.359 8.18359 200.453 8.87109 200.453 9.66797V18H198.273V9.64453C198.273 8.93359 198.16 8.38281 197.934 7.99219C197.715 7.59375 197.402 7.31641 196.996 7.16016C196.598 6.99609 196.121 6.91406 195.566 6.91406C195.09 6.91406 194.668 6.99609 194.301 7.16016C193.934 7.32422 193.625 7.55078 193.375 7.83984C193.125 8.12109 192.934 8.44531 192.801 8.8125C192.676 9.17969 192.613 9.57031 192.613 9.98438ZM211.211 15.832V9.30469C211.211 8.80469 211.109 8.37109 210.906 8.00391C210.711 7.62891 210.414 7.33984 210.016 7.13672C209.617 6.93359 209.125 6.83203 208.539 6.83203C207.992 6.83203 207.512 6.92578 207.098 7.11328C206.691 7.30078 206.371 7.54688 206.137 7.85156C205.91 8.15625 205.797 8.48438 205.797 8.83594H203.629C203.629 8.38281 203.746 7.93359 203.98 7.48828C204.215 7.04297 204.551 6.64062 204.988 6.28125C205.434 5.91406 205.965 5.625 206.582 5.41406C207.207 5.19531 207.902 5.08594 208.668 5.08594C209.59 5.08594 210.402 5.24219 211.105 5.55469C211.816 5.86719 212.371 6.33984 212.77 6.97266C213.176 7.59766 213.379 8.38281 213.379 9.32812V15.2344C213.379 15.6562 213.414 16.1055 213.484 16.582C213.562 17.0586 213.676 17.4688 213.824 17.8125V18H211.562C211.453 17.75 211.367 17.418 211.305 17.0039C211.242 16.582 211.211 16.1914 211.211 15.832ZM211.586 10.3125L211.609 11.8359H209.418C208.801 11.8359 208.25 11.8867 207.766 11.9883C207.281 12.082 206.875 12.2266 206.547 12.4219C206.219 12.6172 205.969 12.8633 205.797 13.1602C205.625 13.4492 205.539 13.7891 205.539 14.1797C205.539 14.5781 205.629 14.9414 205.809 15.2695C205.988 15.5977 206.258 15.8594 206.617 16.0547C206.984 16.2422 207.434 16.3359 207.965 16.3359C208.629 16.3359 209.215 16.1953 209.723 15.9141C210.23 15.6328 210.633 15.2891 210.93 14.8828C211.234 14.4766 211.398 14.082 211.422 13.6992L212.348 14.7422C212.293 15.0703 212.145 15.4336 211.902 15.832C211.66 16.2305 211.336 16.6133 210.93 16.9805C210.531 17.3398 210.055 17.6406 209.5 17.8828C208.953 18.1172 208.336 18.2344 207.648 18.2344C206.789 18.2344 206.035 18.0664 205.387 17.7305C204.746 17.3945 204.246 16.9453 203.887 16.3828C203.535 15.8125 203.359 15.1758 203.359 14.4727C203.359 13.793 203.492 13.1953 203.758 12.6797C204.023 12.1562 204.406 11.7227 204.906 11.3789C205.406 11.0273 206.008 10.7617 206.711 10.582C207.414 10.4023 208.199 10.3125 209.066 10.3125H211.586ZM224.781 15.5391V0H226.961V18H224.969L224.781 15.5391ZM216.25 11.8008V11.5547C216.25 10.5859 216.367 9.70703 216.602 8.91797C216.844 8.12109 217.184 7.4375 217.621 6.86719C218.066 6.29688 218.594 5.85938 219.203 5.55469C219.82 5.24219 220.508 5.08594 221.266 5.08594C222.062 5.08594 222.758 5.22656 223.352 5.50781C223.953 5.78125 224.461 6.18359 224.875 6.71484C225.297 7.23828 225.629 7.87109 225.871 8.61328C226.113 9.35547 226.281 10.1953 226.375 11.1328V12.2109C226.289 13.1406 226.121 13.9766 225.871 14.7188C225.629 15.4609 225.297 16.0938 224.875 16.6172C224.461 17.1406 223.953 17.543 223.352 17.8242C222.75 18.0977 222.047 18.2344 221.242 18.2344C220.5 18.2344 219.82 18.0742 219.203 17.7539C218.594 17.4336 218.066 16.9844 217.621 16.4062C217.184 15.8281 216.844 15.1484 216.602 14.3672C216.367 13.5781 216.25 12.7227 216.25 11.8008ZM218.43 11.5547V11.8008C218.43 12.4336 218.492 13.0273 218.617 13.582C218.75 14.1367 218.953 14.625 219.227 15.0469C219.5 15.4688 219.848 15.8008 220.27 16.043C220.691 16.2773 221.195 16.3945 221.781 16.3945C222.5 16.3945 223.09 16.2422 223.551 15.9375C224.02 15.6328 224.395 15.2305 224.676 14.7305C224.957 14.2305 225.176 13.6875 225.332 13.1016V10.2773C225.238 9.84766 225.102 9.43359 224.922 9.03516C224.75 8.62891 224.523 8.26953 224.242 7.95703C223.969 7.63672 223.629 7.38281 223.223 7.19531C222.824 7.00781 222.352 6.91406 221.805 6.91406C221.211 6.91406 220.699 7.03906 220.27 7.28906C219.848 7.53125 219.5 7.86719 219.227 8.29688C218.953 8.71875 218.75 9.21094 218.617 9.77344C218.492 10.3281 218.43 10.9219 218.43 11.5547ZM235.598 18.2344C234.715 18.2344 233.914 18.0859 233.195 17.7891C232.484 17.4844 231.871 17.0586 231.355 16.5117C230.848 15.9648 230.457 15.3164 230.184 14.5664C229.91 13.8164 229.773 12.9961 229.773 12.1055V11.6133C229.773 10.582 229.926 9.66406 230.23 8.85938C230.535 8.04688 230.949 7.35938 231.473 6.79688C231.996 6.23438 232.59 5.80859 233.254 5.51953C233.918 5.23047 234.605 5.08594 235.316 5.08594C236.223 5.08594 237.004 5.24219 237.66 5.55469C238.324 5.86719 238.867 6.30469 239.289 6.86719C239.711 7.42188 240.023 8.07812 240.227 8.83594C240.43 9.58594 240.531 10.4062 240.531 11.2969V12.2695H231.062V10.5H238.363V10.3359C238.332 9.77344 238.215 9.22656 238.012 8.69531C237.816 8.16406 237.504 7.72656 237.074 7.38281C236.645 7.03906 236.059 6.86719 235.316 6.86719C234.824 6.86719 234.371 6.97266 233.957 7.18359C233.543 7.38672 233.188 7.69141 232.891 8.09766C232.594 8.50391 232.363 9 232.199 9.58594C232.035 10.1719 231.953 10.8477 231.953 11.6133V12.1055C231.953 12.707 232.035 13.2734 232.199 13.8047C232.371 14.3281 232.617 14.7891 232.938 15.1875C233.266 15.5859 233.66 15.8984 234.121 16.125C234.59 16.3516 235.121 16.4648 235.715 16.4648C236.48 16.4648 237.129 16.3086 237.66 15.9961C238.191 15.6836 238.656 15.2656 239.055 14.7422L240.367 15.7852C240.094 16.1992 239.746 16.5938 239.324 16.9688C238.902 17.3438 238.383 17.6484 237.766 17.8828C237.156 18.1172 236.434 18.2344 235.598 18.2344ZM254.277 18.2344C253.395 18.2344 252.594 18.0859 251.875 17.7891C251.164 17.4844 250.551 17.0586 250.035 16.5117C249.527 15.9648 249.137 15.3164 248.863 14.5664C248.59 13.8164 248.453 12.9961 248.453 12.1055V11.6133C248.453 10.582 248.605 9.66406 248.91 8.85938C249.215 8.04688 249.629 7.35938 250.152 6.79688C250.676 6.23438 251.27 5.80859 251.934 5.51953C252.598 5.23047 253.285 5.08594 253.996 5.08594C254.902 5.08594 255.684 5.24219 256.34 5.55469C257.004 5.86719 257.547 6.30469 257.969 6.86719C258.391 7.42188 258.703 8.07812 258.906 8.83594C259.109 9.58594 259.211 10.4062 259.211 11.2969V12.2695H249.742V10.5H257.043V10.3359C257.012 9.77344 256.895 9.22656 256.691 8.69531C256.496 8.16406 256.184 7.72656 255.754 7.38281C255.324 7.03906 254.738 6.86719 253.996 6.86719C253.504 6.86719 253.051 6.97266 252.637 7.18359C252.223 7.38672 251.867 7.69141 251.57 8.09766C251.273 8.50391 251.043 9 250.879 9.58594C250.715 10.1719 250.633 10.8477 250.633 11.6133V12.1055C250.633 12.707 250.715 13.2734 250.879 13.8047C251.051 14.3281 251.297 14.7891 251.617 15.1875C251.945 15.5859 252.34 15.8984 252.801 16.125C253.27 16.3516 253.801 16.4648 254.395 16.4648C255.16 16.4648 255.809 16.3086 256.34 15.9961C256.871 15.6836 257.336 15.2656 257.734 14.7422L259.047 15.7852C258.773 16.1992 258.426 16.5938 258.004 16.9688C257.582 17.3438 257.062 17.6484 256.445 17.8828C255.836 18.1172 255.113 18.2344 254.277 18.2344ZM269.219 15.832V9.30469C269.219 8.80469 269.117 8.37109 268.914 8.00391C268.719 7.62891 268.422 7.33984 268.023 7.13672C267.625 6.93359 267.133 6.83203 266.547 6.83203C266 6.83203 265.52 6.92578 265.105 7.11328C264.699 7.30078 264.379 7.54688 264.145 7.85156C263.918 8.15625 263.805 8.48438 263.805 8.83594H261.637C261.637 8.38281 261.754 7.93359 261.988 7.48828C262.223 7.04297 262.559 6.64062 262.996 6.28125C263.441 5.91406 263.973 5.625 264.59 5.41406C265.215 5.19531 265.91 5.08594 266.676 5.08594C267.598 5.08594 268.41 5.24219 269.113 5.55469C269.824 5.86719 270.379 6.33984 270.777 6.97266C271.184 7.59766 271.387 8.38281 271.387 9.32812V15.2344C271.387 15.6562 271.422 16.1055 271.492 16.582C271.57 17.0586 271.684 17.4688 271.832 17.8125V18H269.57C269.461 17.75 269.375 17.418 269.312 17.0039C269.25 16.582 269.219 16.1914 269.219 15.832ZM269.594 10.3125L269.617 11.8359H267.426C266.809 11.8359 266.258 11.8867 265.773 11.9883C265.289 12.082 264.883 12.2266 264.555 12.4219C264.227 12.6172 263.977 12.8633 263.805 13.1602C263.633 13.4492 263.547 13.7891 263.547 14.1797C263.547 14.5781 263.637 14.9414 263.816 15.2695C263.996 15.5977 264.266 15.8594 264.625 16.0547C264.992 16.2422 265.441 16.3359 265.973 16.3359C266.637 16.3359 267.223 16.1953 267.73 15.9141C268.238 15.6328 268.641 15.2891 268.938 14.8828C269.242 14.4766 269.406 14.082 269.43 13.6992L270.355 14.7422C270.301 15.0703 270.152 15.4336 269.91 15.832C269.668 16.2305 269.344 16.6133 268.938 16.9805C268.539 17.3398 268.062 17.6406 267.508 17.8828C266.961 18.1172 266.344 18.2344 265.656 18.2344C264.797 18.2344 264.043 18.0664 263.395 17.7305C262.754 17.3945 262.254 16.9453 261.895 16.3828C261.543 15.8125 261.367 15.1758 261.367 14.4727C261.367 13.793 261.5 13.1953 261.766 12.6797C262.031 12.1562 262.414 11.7227 262.914 11.3789C263.414 11.0273 264.016 10.7617 264.719 10.582C265.422 10.4023 266.207 10.3125 267.074 10.3125H269.594ZM282.18 14.6367C282.18 14.3242 282.109 14.0352 281.969 13.7695C281.836 13.4961 281.559 13.25 281.137 13.0312C280.723 12.8047 280.098 12.6094 279.262 12.4453C278.559 12.2969 277.922 12.1211 277.352 11.918C276.789 11.7148 276.309 11.4688 275.91 11.1797C275.52 10.8906 275.219 10.5508 275.008 10.1602C274.797 9.76953 274.691 9.3125 274.691 8.78906C274.691 8.28906 274.801 7.81641 275.02 7.37109C275.246 6.92578 275.562 6.53125 275.969 6.1875C276.383 5.84375 276.879 5.57422 277.457 5.37891C278.035 5.18359 278.68 5.08594 279.391 5.08594C280.406 5.08594 281.273 5.26562 281.992 5.625C282.711 5.98438 283.262 6.46484 283.645 7.06641C284.027 7.66016 284.219 8.32031 284.219 9.04688H282.051C282.051 8.69531 281.945 8.35547 281.734 8.02734C281.531 7.69141 281.23 7.41406 280.832 7.19531C280.441 6.97656 279.961 6.86719 279.391 6.86719C278.789 6.86719 278.301 6.96094 277.926 7.14844C277.559 7.32812 277.289 7.55859 277.117 7.83984C276.953 8.12109 276.871 8.41797 276.871 8.73047C276.871 8.96484 276.91 9.17578 276.988 9.36328C277.074 9.54297 277.223 9.71094 277.434 9.86719C277.645 10.0156 277.941 10.1562 278.324 10.2891C278.707 10.4219 279.195 10.5547 279.789 10.6875C280.828 10.9219 281.684 11.2031 282.355 11.5312C283.027 11.8594 283.527 12.2617 283.855 12.7383C284.184 13.2148 284.348 13.793 284.348 14.4727C284.348 15.0273 284.23 15.5352 283.996 15.9961C283.77 16.457 283.438 16.8555 283 17.1914C282.57 17.5195 282.055 17.7773 281.453 17.9648C280.859 18.1445 280.191 18.2344 279.449 18.2344C278.332 18.2344 277.387 18.0352 276.613 17.6367C275.84 17.2383 275.254 16.7227 274.855 16.0898C274.457 15.457 274.258 14.7891 274.258 14.0859H276.438C276.469 14.6797 276.641 15.1523 276.953 15.5039C277.266 15.8477 277.648 16.0938 278.102 16.2422C278.555 16.3828 279.004 16.4531 279.449 16.4531C280.043 16.4531 280.539 16.375 280.938 16.2188C281.344 16.0625 281.652 15.8477 281.863 15.5742C282.074 15.3008 282.18 14.9883 282.18 14.6367ZM290.758 16.6875L294.285 5.32031H296.605L291.52 19.957C291.402 20.2695 291.246 20.6055 291.051 20.9648C290.863 21.332 290.621 21.6797 290.324 22.0078C290.027 22.3359 289.668 22.6016 289.246 22.8047C288.832 23.0156 288.336 23.1211 287.758 23.1211C287.586 23.1211 287.367 23.0977 287.102 23.0508C286.836 23.0039 286.648 22.9648 286.539 22.9336L286.527 21.1758C286.59 21.1836 286.688 21.1914 286.82 21.1992C286.961 21.2148 287.059 21.2227 287.113 21.2227C287.605 21.2227 288.023 21.1562 288.367 21.0234C288.711 20.8984 289 20.6836 289.234 20.3789C289.477 20.082 289.684 19.6719 289.855 19.1484L290.758 16.6875ZM288.168 5.32031L291.461 15.1641L292.023 17.4492L290.465 18.2461L285.801 5.32031H288.168ZM315.965 7.71094V8.66016H304.234V12.4688H303.309V7.71094H315.965ZM317.634 18V3.648H331.986V18H317.634ZM318.522 17.112H324.81V4.536H318.522V17.112ZM335.015 13.176C334.471 13.16 334.159 13.152 334.079 13.152C334.079 12.96 334.079 12.664 334.079 12.264C334.095 11.864 334.103 11.456 334.103 11.04C334.119 10.608 334.127 10.224 334.127 9.888C334.143 9.552 334.151 9.36 334.151 9.312C334.167 9.312 334.415 9.312 334.895 9.312C335.375 9.312 335.975 9.312 336.695 9.312C337.431 9.312 338.231 9.312 339.095 9.312C339.959 9.312 340.775 9.312 341.543 9.312C342.327 9.312 343.015 9.312 343.607 9.312C344.199 9.312 344.591 9.312 344.783 9.312C344.799 9.984 344.783 10.656 344.735 11.328C344.703 12 344.743 12.664 344.855 13.32H344.831C344.751 13.32 344.439 13.32 343.895 13.32C343.351 13.32 342.695 13.312 341.927 13.296C341.159 13.28 340.335 13.264 339.455 13.248C338.575 13.232 337.751 13.224 336.983 13.224C336.215 13.208 335.559 13.192 335.015 13.176ZM346.954 18V3.648H361.306V18H346.954ZM347.842 17.112H354.13V4.536H347.842V17.112Z" fill="black"/>
</svg>
