<svg width="72" height="26" viewBox="0 0 72 26" fill="none" xmlns="http://www.w3.org/2000/svg">
<path d="M30.9724 0H57.7588V4.03694H30.9724V0Z" fill="#F3322C"/>
<path d="M0.000226974 0H26.7866V4.03694H0.000226974V0Z" fill="#F3322C"/>
<path d="M53.5734 4.03699H57.7588V8.88132H53.5734V4.03699Z" fill="#F3322C"/>
<path d="M44.3649 4.03699H53.5728V8.88132H44.3649V4.03699Z" fill="white"/>
<path d="M35.1574 4.03699H44.3652V8.88132H35.1574V4.03699Z" fill="black"/>
<path d="M30.9723 4.03699H35.1577V8.88132H30.9723V4.03699Z" fill="#F3322C"/>
<path d="M21.7642 4.03699H26.7866V8.88132H21.7642V4.03699Z" fill="#F3322C"/>
<path d="M13.3939 4.03699H21.7646V8.88132H13.3939V4.03699Z" fill="white"/>
<path d="M4.18622 4.03699H13.394V8.88132H4.18622V4.03699Z" fill="black"/>
<path d="M-0.000315189 4.03699H4.18506V8.88132H-0.000315189V4.03699Z" fill="#F3322C"/>
<path d="M53.5733 8.88123H71.1519V12.9182H53.5733V8.88123Z" fill="#F3322C"/>
<path d="M44.3649 8.88123H53.5728V12.9182H44.3649V8.88123Z" fill="white"/>
<path d="M35.1574 8.88123H44.3652V12.9182H35.1574V8.88123Z" fill="black"/>
<path d="M21.7645 8.88123H35.1577V12.9182H21.7645V8.88123Z" fill="#F3322C"/>
<path d="M13.3939 8.88123H21.7646V12.9182H13.3939V8.88123Z" fill="white"/>
<path d="M4.18622 8.88123H13.394V12.9182H4.18622V8.88123Z" fill="black"/>
<path d="M-0.000315189 8.88123H4.18506V12.9182H-0.000315189V8.88123Z" fill="#F3322C"/>
<path d="M66.9665 12.9181H71.1519V16.955H66.9665V12.9181Z" fill="#F3322C"/>
<path d="M53.5734 12.9181H57.7588V16.955H53.5734V12.9181Z" fill="#F3322C"/>
<path d="M44.3649 12.9181H53.5728V16.955H44.3649V12.9181Z" fill="white"/>
<path d="M35.1574 12.9181H44.3652V16.955H35.1574V12.9181Z" fill="black"/>
<path d="M30.9723 12.9181H35.1577V16.955H30.9723V12.9181Z" fill="#F3322C"/>
<path d="M21.7642 12.9181H26.7866V16.955H21.7642V12.9181Z" fill="#F3322C"/>
<path d="M13.3939 12.9181H21.7646V16.955H13.3939V12.9181Z" fill="white"/>
<path d="M4.18622 12.9181H13.394V16.955H4.18622V12.9181Z" fill="black"/>
<path d="M-0.000315189 12.9181H4.18506V16.955H-0.000315189V12.9181Z" fill="#F3322C"/>
<path d="M66.9665 16.9551H71.1519V21.7994H66.9665V16.9551Z" fill="#F3322C"/>
<path d="M53.5734 16.9551H57.7588V21.7994H53.5734V16.9551Z" fill="#F3322C"/>
<path d="M44.3649 16.9551H53.5728V21.7994H44.3649V16.9551Z" fill="white"/>
<path d="M35.1574 16.9551H44.3652V21.7994H35.1574V16.9551Z" fill="black"/>
<path d="M30.9723 16.9551H35.1577V21.7994H30.9723V16.9551Z" fill="#F3322C"/>
<path d="M21.7642 16.9551H26.7866V21.7994H21.7642V16.9551Z" fill="#F3322C"/>
<path d="M13.3939 16.9551H21.7646V21.7994H13.3939V16.9551Z" fill="white"/>
<path d="M4.18622 16.9551H13.394V21.7994H4.18622V16.9551Z" fill="black"/>
<path d="M-0.000315189 16.9551H4.18506V21.7994H-0.000315189V16.9551Z" fill="#F3322C"/>
<path d="M30.9724 21.7994H57.7588V25.8364H30.9724V21.7994Z" fill="#F3322C"/>
<path d="M0.000226974 21.7994H26.7866V25.8364H0.000226974V21.7994Z" fill="#F3322C"/>
</svg>
