<svg width="56" height="48" viewBox="0 0 56 48" fill="none" xmlns="http://www.w3.org/2000/svg">
<path d="M56 0H0V2.8H56V0Z" fill="#7E5243"/>
<path d="M2.8 2.7998H0V5.5998H2.8V2.7998Z" fill="#7E5243"/>
<path d="M8.3998 2.7998H2.7998V5.5998H8.3998V2.7998Z" fill="#CAEFF9"/>
<path d="M11.2004 2.7998H8.40039V5.5998H11.2004V2.7998Z" fill="white"/>
<path d="M14.0002 2.7998H11.2002V5.5998H14.0002V2.7998Z" fill="#CAEFF9"/>
<path d="M22.4 2.7998H14V5.5998H22.4V2.7998Z" fill="white"/>
<path d="M50.4004 2.7998H22.4004V5.5998H50.4004V2.7998Z" fill="#CAEFF9"/>
<path d="M53.2004 2.7998H50.4004V5.5998H53.2004V2.7998Z" fill="white"/>
<path d="M56.0002 2.7998H53.2002V5.5998H56.0002V2.7998Z" fill="#7E5243"/>
<path d="M2.8 5.6001H0V8.4001H2.8V5.6001Z" fill="#7E5243"/>
<path d="M5.5998 5.6001H2.7998V8.4001H5.5998V5.6001Z" fill="#CAEFF9"/>
<path d="M8.39961 5.6001H5.59961V8.4001H8.39961V5.6001Z" fill="white"/>
<path d="M11.2004 5.6001H8.40039V8.4001H11.2004V5.6001Z" fill="#CAEFF9"/>
<path d="M19.6002 5.6001H11.2002V8.4001H19.6002V5.6001Z" fill="white"/>
<path d="M50.3996 5.6001H19.5996V8.4001H50.3996V5.6001Z" fill="#CAEFF9"/>
<path d="M53.2004 5.6001H50.4004V8.4001H53.2004V5.6001Z" fill="white"/>
<path d="M56.0002 5.6001H53.2002V8.4001H56.0002V5.6001Z" fill="#7E5243"/>
<path d="M2.8 8.3999H0V11.1999H2.8V8.3999Z" fill="#7E5243"/>
<path d="M5.5998 8.3999H2.7998V11.1999H5.5998V8.3999Z" fill="white"/>
<path d="M8.39961 8.3999H5.59961V11.1999H8.39961V8.3999Z" fill="#CAEFF9"/>
<path d="M16.8004 8.3999H8.40039V11.1999H16.8004V8.3999Z" fill="white"/>
<path d="M50.3998 8.3999H16.7998V11.1999H50.3998V8.3999Z" fill="#CAEFF9"/>
<path d="M53.2004 8.3999H50.4004V11.1999H53.2004V8.3999Z" fill="white"/>
<path d="M56.0002 8.3999H53.2002V11.1999H56.0002V8.3999Z" fill="#7E5243"/>
<path d="M2.8 11.2002H0V14.0002H2.8V11.2002Z" fill="#7E5243"/>
<path d="M5.5998 11.2002H2.7998V14.0002H5.5998V11.2002Z" fill="#CAEFF9"/>
<path d="M13.9996 11.2002H5.59961V14.0002H13.9996V11.2002Z" fill="white"/>
<path d="M50.4 11.2002H14V14.0002H50.4V11.2002Z" fill="#CAEFF9"/>
<path d="M53.2004 11.2002H50.4004V14.0002H53.2004V11.2002Z" fill="white"/>
<path d="M56.0002 11.2002H53.2002V14.0002H56.0002V11.2002Z" fill="#7E5243"/>
<path d="M2.8 14H0V16.8H2.8V14Z" fill="#7E5243"/>
<path d="M11.1998 14H2.7998V16.8H11.1998V14Z" fill="white"/>
<path d="M14.0002 14H11.2002V16.8H14.0002V14Z" fill="#CAEFF9"/>
<path d="M30.8 14H14V16.8H30.8V14Z" fill="#7CC4F2"/>
<path d="M33.5998 14H30.7998V16.8H33.5998V14Z" fill="#CAEFF9"/>
<path d="M50.3996 14H33.5996V16.8H50.3996V14Z" fill="#7CC4F2"/>
<path d="M53.2004 14H50.4004V16.8H53.2004V14Z" fill="white"/>
<path d="M56.0002 14H53.2002V16.8H56.0002V14Z" fill="#7E5243"/>
<path d="M2.8 16.7998H0V19.5998H2.8V16.7998Z" fill="#7E5243"/>
<path d="M8.3998 16.7998H2.7998V19.5998H8.3998V16.7998Z" fill="white"/>
<path d="M14.0004 16.7998H8.40039V19.5998H14.0004V16.7998Z" fill="#CAEFF9"/>
<path d="M16.8 16.7998H14V19.5998H16.8V16.7998Z" fill="#7CC4F2"/>
<path d="M27.9998 16.7998H16.7998V19.5998H27.9998V16.7998Z" fill="#CAEFF9"/>
<path d="M30.8 16.7998H28V19.5998H30.8V16.7998Z" fill="#7CC4F2"/>
<path d="M33.5998 16.7998H30.7998V19.5998H33.5998V16.7998Z" fill="#CAEFF9"/>
<path d="M36.3996 16.7998H33.5996V19.5998H36.3996V16.7998Z" fill="#7CC4F2"/>
<path d="M47.6004 16.7998H36.4004V19.5998H47.6004V16.7998Z" fill="#CAEFF9"/>
<path d="M50.3996 16.7998H47.5996V19.5998H50.3996V16.7998Z" fill="#7CC4F2"/>
<path d="M53.2004 16.7998H50.4004V19.5998H53.2004V16.7998Z" fill="white"/>
<path d="M56.0002 16.7998H53.2002V19.5998H56.0002V16.7998Z" fill="#7E5243"/>
<path d="M2.8 19.6001H0V22.4001H2.8V19.6001Z" fill="#7E5243"/>
<path d="M5.5998 19.6001H2.7998V22.4001H5.5998V19.6001Z" fill="white"/>
<path d="M16.7996 19.6001H5.59961V22.4001H16.7996V19.6001Z" fill="#7CC4F2"/>
<path d="M27.9998 19.6001H16.7998V22.4001H27.9998V19.6001Z" fill="#CAEFF9"/>
<path d="M36.4 19.6001H28V22.4001H36.4V19.6001Z" fill="#7CC4F2"/>
<path d="M47.6004 19.6001H36.4004V22.4001H47.6004V19.6001Z" fill="#CAEFF9"/>
<path d="M50.3996 19.6001H47.5996V22.4001H50.3996V19.6001Z" fill="#7CC4F2"/>
<path d="M53.2004 19.6001H50.4004V22.4001H53.2004V19.6001Z" fill="white"/>
<path d="M56.0002 19.6001H53.2002V22.4001H56.0002V19.6001Z" fill="#7E5243"/>
<path d="M2.8 22.3999H0V25.1999H2.8V22.3999Z" fill="#7E5243"/>
<path d="M5.5998 22.3999H2.7998V25.1999H5.5998V22.3999Z" fill="#CAEFF9"/>
<path d="M8.39961 22.3999H5.59961V25.1999H8.39961V22.3999Z" fill="#7CC4F2"/>
<path d="M14.0004 22.3999H8.40039V25.1999H14.0004V22.3999Z" fill="#CAEFF9"/>
<path d="M16.8 22.3999H14V25.1999H16.8V22.3999Z" fill="#7CC4F2"/>
<path d="M27.9998 22.3999H16.7998V25.1999H27.9998V22.3999Z" fill="#CAEFF9"/>
<path d="M30.8 22.3999H28V25.1999H30.8V22.3999Z" fill="#7CC4F2"/>
<path d="M33.5998 22.3999H30.7998V25.1999H33.5998V22.3999Z" fill="#CAEFF9"/>
<path d="M36.3996 22.3999H33.5996V25.1999H36.3996V22.3999Z" fill="#7CC4F2"/>
<path d="M47.6004 22.3999H36.4004V25.1999H47.6004V22.3999Z" fill="#CAEFF9"/>
<path d="M50.3996 22.3999H47.5996V25.1999H50.3996V22.3999Z" fill="#7CC4F2"/>
<path d="M53.2004 22.3999H50.4004V25.1999H53.2004V22.3999Z" fill="white"/>
<path d="M56.0002 22.3999H53.2002V25.1999H56.0002V22.3999Z" fill="#7E5243"/>
<path d="M2.8 25.2002H0V28.0002H2.8V25.2002Z" fill="#7E5243"/>
<path d="M5.5998 25.2002H2.7998V28.0002H5.5998V25.2002Z" fill="#CAEFF9"/>
<path d="M8.39961 25.2002H5.59961V28.0002H8.39961V25.2002Z" fill="#7CC4F2"/>
<path d="M14.0004 25.2002H8.40039V28.0002H14.0004V25.2002Z" fill="#CAEFF9"/>
<path d="M16.8 25.2002H14V28.0002H16.8V25.2002Z" fill="#7CC4F2"/>
<path d="M27.9998 25.2002H16.7998V28.0002H27.9998V25.2002Z" fill="#CAEFF9"/>
<path d="M30.8 25.2002H28V28.0002H30.8V25.2002Z" fill="#7CC4F2"/>
<path d="M33.5998 25.2002H30.7998V28.0002H33.5998V25.2002Z" fill="#CAEFF9"/>
<path d="M36.3996 25.2002H33.5996V28.0002H36.3996V25.2002Z" fill="#7CC4F2"/>
<path d="M47.6004 25.2002H36.4004V28.0002H47.6004V25.2002Z" fill="#CAEFF9"/>
<path d="M50.3996 25.2002H47.5996V28.0002H50.3996V25.2002Z" fill="#7CC4F2"/>
<path d="M53.2004 25.2002H50.4004V28.0002H53.2004V25.2002Z" fill="white"/>
<path d="M56.0002 25.2002H53.2002V28.0002H56.0002V25.2002Z" fill="#7E5243"/>
<path d="M2.8 28H0V30.8H2.8V28Z" fill="#7E5243"/>
<path d="M13.9998 28H2.7998V30.8H13.9998V28Z" fill="#CAEFF9"/>
<path d="M30.8 28H14V30.8H30.8V28Z" fill="#7CC4F2"/>
<path d="M33.5998 28H30.7998V30.8H33.5998V28Z" fill="#CAEFF9"/>
<path d="M50.3996 28H33.5996V30.8H50.3996V28Z" fill="#7CC4F2"/>
<path d="M53.2004 28H50.4004V30.8H53.2004V28Z" fill="white"/>
<path d="M56.0002 28H53.2002V30.8H56.0002V28Z" fill="#7E5243"/>
<path d="M2.8 30.7998H0V33.5998H2.8V30.7998Z" fill="#7E5243"/>
<path d="M50.3998 30.7998H2.7998V33.5998H50.3998V30.7998Z" fill="#CAEFF9"/>
<path d="M53.2004 30.7998H50.4004V33.5998H53.2004V30.7998Z" fill="white"/>
<path d="M56.0002 30.7998H53.2002V33.5998H56.0002V30.7998Z" fill="#7E5243"/>
<path d="M2.8 33.6001H0V36.4001H2.8V33.6001Z" fill="#7E5243"/>
<path d="M50.3998 33.6001H2.7998V36.4001H50.3998V33.6001Z" fill="#CAEFF9"/>
<path d="M53.2004 33.6001H50.4004V36.4001H53.2004V33.6001Z" fill="white"/>
<path d="M56.0002 33.6001H53.2002V36.4001H56.0002V33.6001Z" fill="#7E5243"/>
<path d="M2.8 36.3999H0V39.1999H2.8V36.3999Z" fill="#7E5243"/>
<path d="M50.3998 36.3999H2.7998V39.1999H50.3998V36.3999Z" fill="#CAEFF9"/>
<path d="M53.2004 36.3999H50.4004V39.1999H53.2004V36.3999Z" fill="white"/>
<path d="M56.0002 36.3999H53.2002V39.1999H56.0002V36.3999Z" fill="#7E5243"/>
<path d="M2.8 39.2002H0V42.0002H2.8V39.2002Z" fill="#7E5243"/>
<path d="M50.3998 39.2002H2.7998V42.0002H50.3998V39.2002Z" fill="#CAEFF9"/>
<path d="M53.2004 39.2002H50.4004V42.0002H53.2004V39.2002Z" fill="white"/>
<path d="M56.0002 39.2002H53.2002V42.0002H56.0002V39.2002Z" fill="#7E5243"/>
<path d="M2.8 42H0V44.8H2.8V42Z" fill="#7E5243"/>
<path d="M53.1998 42H2.7998V44.8H53.1998V42Z" fill="white"/>
<path d="M56.0002 42H53.2002V44.8H56.0002V42Z" fill="#7E5243"/>
<path d="M56 44.7998H0V47.5998H56V44.7998Z" fill="#7E5243"/>
</svg>
