<svg width="35" height="27" viewBox="0 0 35 27" fill="none" xmlns="http://www.w3.org/2000/svg">
<path d="M29.1667 0H17.5V1.45833H29.1667V0Z" fill="#FFC110"/>
<path d="M21.8752 1.45837H14.5835V2.91671H21.8752V1.45837Z" fill="#FFC110"/>
<path d="M27.7083 1.45837H21.875V2.91671H27.7083V1.45837Z" fill="#FFF0EE"/>
<path d="M30.6252 1.45837H27.7085V2.91671H30.6252V1.45837Z" fill="#FFC110"/>
<path d="M20.4167 2.91663H13.125V4.37496H20.4167V2.91663Z" fill="#FFC110"/>
<path d="M23.3332 2.91663H20.4165V4.37496H23.3332V2.91663Z" fill="#FFF0EE"/>
<path d="M26.2502 2.91663H23.3335V4.37496H26.2502V2.91663Z" fill="black"/>
<path d="M29.1667 2.91663H26.25V4.37496H29.1667V2.91663Z" fill="#FFF0EE"/>
<path d="M30.6248 2.91663H29.1665V4.37496H30.6248V2.91663Z" fill="#FFC110"/>
<path d="M20.4167 4.375H13.125V5.83333H20.4167V4.375Z" fill="#FFC110"/>
<path d="M23.3332 4.375H20.4165V5.83333H23.3332V4.375Z" fill="#FFF0EE"/>
<path d="M26.2502 4.375H23.3335V5.83333H26.2502V4.375Z" fill="black"/>
<path d="M29.1667 4.375H26.25V5.83333H29.1667V4.375Z" fill="#FFF0EE"/>
<path d="M30.6248 4.375H29.1665V5.83333H30.6248V4.375Z" fill="#FFC110"/>
<path d="M32.0833 4.375H30.625V5.83333H32.0833V4.375Z" fill="#FE500C"/>
<path d="M21.875 5.83337H13.125V7.29171H21.875V5.83337Z" fill="#FFC110"/>
<path d="M27.7083 5.83337H21.875V7.29171H27.7083V5.83337Z" fill="#FFF0EE"/>
<path d="M30.6252 5.83337H27.7085V7.29171H30.6252V5.83337Z" fill="#FFC110"/>
<path d="M35 5.83337H30.625V7.29171H35V5.83337Z" fill="#FE500C"/>
<path d="M4.37516 7.29163H1.4585V8.74996H4.37516V7.29163Z" fill="#FFC110"/>
<path d="M29.1668 7.29163H14.5835V8.74996H29.1668V7.29163Z" fill="#FFC110"/>
<path d="M33.5415 7.29163H29.1665V8.74996H33.5415V7.29163Z" fill="#FE500C"/>
<path d="M8.75016 8.75H1.4585V10.2083H8.75016V8.75Z" fill="#FFC110"/>
<path d="M30.6248 8.75H16.0415V10.2083H30.6248V8.75Z" fill="#FFC110"/>
<path d="M32.0833 10.2084H0V11.6667H32.0833V10.2084Z" fill="#FFC110"/>
<path d="M33.5417 11.6666H0V13.125H33.5417V11.6666Z" fill="#FFC110"/>
<path d="M35 13.125H0V14.5833H35V13.125Z" fill="#FFC110"/>
<path d="M35 14.5834H0V16.0417H35V14.5834Z" fill="#FFC110"/>
<path d="M35 16.0416H0V17.5H35V16.0416Z" fill="#FFC110"/>
<path d="M35.0002 17.5H1.4585V18.9583H35.0002V17.5Z" fill="#FFC110"/>
<path d="M35.0002 18.9584H1.4585V20.4167H35.0002V18.9584Z" fill="#FFC110"/>
<path d="M34.9998 20.4166H2.9165V21.875H34.9998V20.4166Z" fill="#FFC110"/>
<path d="M18.9582 21.875H2.9165V23.3333H18.9582V21.875Z" fill="#FFC110"/>
<path d="M20.4168 21.875H18.9585V23.3333H20.4168V21.875Z" fill="#D08B11"/>
<path d="M33.5415 21.875H20.4165V23.3333H33.5415V21.875Z" fill="#FFC110"/>
<path d="M14.5833 23.3334H4.375V24.7917H14.5833V23.3334Z" fill="#FFC110"/>
<path d="M18.9585 23.3334H14.5835V24.7917H18.9585V23.3334Z" fill="#D08B11"/>
<path d="M32.0835 23.3334H18.9585V24.7917H32.0835V23.3334Z" fill="#FFC110"/>
<path d="M30.6248 24.7916H7.2915V26.25H30.6248V24.7916Z" fill="#FFC110"/>
</svg>
